<svg width="34" height="48" viewBox="0 0 34 48" fill="none" xmlns="http://www.w3.org/2000/svg">
<path d="M0.3125 9C0.3125 12.1875 1.90625 14.9062 4.34375 16.5C1.90625 18.1875 0.3125 20.9062 0.3125 24.0938C0.3125 27.1875 1.90625 29.9062 4.34375 31.5938C1.90625 33.1875 0.3125 35.9062 0.3125 39.0938C0.3125 44.0625 4.34375 48 9.3125 48C14.2812 48 18.4062 43.9688 18.4062 39V30.6562C20 32.1562 22.1562 33 24.5 33H24.6875C29.6562 33 33.5938 28.9688 33.5938 24.0938C33.5938 20.9062 32 18.1875 29.5625 16.5C32 14.9062 33.5938 12.1875 33.5938 9C33.5938 4.03125 29.6562 0 24.6875 0H9.21875C4.25 0 0.3125 4.03125 0.3125 9ZM15.5 18V30.0938H9.21875C5.84375 30.0938 3.21875 27.375 3.21875 24.0938C3.21875 20.7188 5.9375 18 9.21875 18H15.5ZM18.4062 24.0938C18.4062 20.7188 21.125 18 24.5 18H24.6875C27.9688 18 30.6875 20.7188 30.6875 24.0938C30.6875 27.375 27.9688 30.0938 24.6875 30.0938H24.5C21.125 30.0938 18.4062 27.375 18.4062 24.0938ZM9.21875 33H15.5V39C15.5 42.375 12.6875 45.0938 9.3125 45.0938C5.9375 45.0938 3.21875 42.375 3.21875 39.0938C3.21875 35.7188 5.84375 33.0938 9.21875 33ZM9.21875 3H15.5V15.0938H9.21875C5.9375 15.0938 3.21875 12.375 3.21875 9C3.21875 5.71875 5.9375 3 9.21875 3ZM18.4062 15.0938V3H24.6875C27.9688 3 30.6875 5.71875 30.6875 9C30.6875 12.375 27.9688 15.0938 24.6875 15.0938H18.4062Z" fill="black"/>
</svg>
