<svg width="43" height="50" viewBox="0 0 43 50" fill="none" xmlns="http://www.w3.org/2000/svg">
<path d="M0 20.8986C3.50117 22.9053 13.9158 32.7448 19.9633 32.7448C28.6632 32.7448 40.9301 30.2202 40.9301 26.2067C40.9301 23.4879 3.91635 83.7549 33.1924 22.1933C31.2827 21.8049 15.9316 49.2363 12.6426 48.7832C6.48903 47.8769 10.6268 17.7267 10.6268 15.3316C10.6268 12.6128 13.9158 13.7132 19.9633 13.7132C27.1778 11.0148 37.4495 29.6756 43 17.2084C39.8171 15.2664 25.3743 0 19.9634 0C11.4757 0 2.24159 9.63505 2.24159 13.7132C2.24159 16.4968 8.82321 19.9276 12.6427 20.8986C14.5524 21.3518 16.9926 21.7401 19.9633 22.1933C26.3291 23.0995 29.6181 23.6821 29.7242 26.2067C29.8303 28.8608 26.223 30.4144 19.9633 30.4144C14.7646 30.4144 3.92556 22.8406 0 20.8986Z" fill="#238FB0"/>
</svg>
