<svg width="90" height="48" viewBox="0 0 90 48" fill="none" xmlns="http://www.w3.org/2000/svg">
<rect x="9.51923" y="2.82352" width="40.6731" height="40.2353" fill="#670303"/>
<path d="M90 43.0588H79.9136L60.2787 16.5853V43.0588H50.1923V2.82352H60.2787L79.9472 29.3523V2.82352H90V43.0588Z" fill="#670303"/>
<path d="M34.1381 35.1016C34.1381 33.2834 33.3014 31.893 31.628 30.9305C29.9545 29.9465 26.9424 28.9198 22.5914 27.8503C18.2405 26.7594 14.796 25.6898 12.2579 24.6417C5.34106 21.7754 1.88262 17.9144 1.88262 13.0588C1.88262 10.5348 2.80301 8.28877 4.64379 6.32086C6.51246 4.33155 9.17602 2.78075 12.6345 1.66845C16.1208 0.55615 20.0255 0 24.3485 0C28.6995 0 32.5763 0.609626 35.9789 1.82888C39.3816 3.02674 42.0173 4.72727 43.8859 6.93048C45.7825 9.13369 46.7308 11.6364 46.7308 14.4385H34.18C34.18 12.2995 33.3014 10.6417 31.5443 9.46524C29.7872 8.26738 27.3189 7.66845 24.1393 7.66845C21.0714 7.66845 18.6867 8.17112 16.9854 9.17647C15.2841 10.1604 14.4334 11.4652 14.4334 13.0909C14.4334 14.6096 15.4235 15.8824 17.4038 16.9091C19.4119 17.9358 22.3543 18.8984 26.2311 19.7968C33.3712 21.4439 38.5728 23.4866 41.836 25.9251C45.0992 28.3636 46.7308 31.4011 46.7308 35.0374C46.7308 39.0802 44.7366 42.2567 40.7482 44.5668C36.7599 46.8556 31.3909 48 24.6414 48C19.9558 48 15.6885 47.3476 11.8396 46.0428C7.99067 44.7166 5.04821 42.9091 3.01219 40.6203C1.00406 38.3316 0 35.6791 0 32.6631H12.5926C12.5926 37.8182 16.6089 40.3957 24.6414 40.3957C27.6257 40.3957 29.9545 39.9358 31.628 39.016C33.3014 38.0749 34.1381 36.7701 34.1381 35.1016Z" fill="white"/>
</svg>
