<svg width="48" height="43" viewBox="0 0 48 43" fill="none" xmlns="http://www.w3.org/2000/svg">
<path d="M39.1875 13.6875C38.625 13.5 38.1562 13.3125 37.6875 13.2188C37.6875 12.8438 37.7812 12.4688 37.875 12.0938C39 6.56251 38.25 2.06251 35.7188 0.56251C33.2812 -0.84374 29.25 0.65626 25.125 4.21876C24.75 4.50001 24.375 4.87501 24 5.25001C23.7188 4.96876 23.4375 4.78126 23.25 4.50001C18.9375 0.75001 14.625 -0.84374 12.0938 0.65626C9.65625 2.06251 8.90625 6.28126 9.9375 11.625C10.0312 12.0938 10.125 12.6563 10.3125 13.125C9.65625 13.3125 9.09375 13.5 8.53125 13.6875C3.5625 15.4688 0 18.1875 0 21C0 23.9063 3.75 26.9063 9 28.6875C9.375 28.7813 9.84375 28.9688 10.2188 29.0625C10.125 29.625 10.0312 30.1875 9.84375 30.75C8.90625 35.9063 9.65625 40.0313 12.0938 41.4375C14.625 42.9375 18.9375 41.4375 23.0625 37.7813C23.3438 37.5 23.7188 37.2188 24 36.9375C24.4688 37.3125 24.8438 37.6875 25.3125 38.0625C29.3438 41.5313 33.2812 42.9375 35.7188 41.5313C38.25 40.0313 39.0938 35.625 38.0625 30.1875C37.9688 29.8125 37.875 29.3438 37.7812 28.9688C38.0625 28.875 38.3438 28.7813 38.625 28.6875C44.0625 26.9063 48 24 48 21C48 18.1875 44.25 15.375 39.1875 13.6875ZM26.4375 5.71876C30 2.62501 33.1875 1.50001 34.6875 2.34376C36.2812 3.18751 36.9375 6.93751 35.9062 11.7188C35.8125 12.0938 35.8125 12.375 35.7188 12.6563C33.5625 12.1875 31.5 11.9063 29.3438 11.7188C28.125 9.93751 26.8125 8.25001 25.4062 6.65626C25.7812 6.37501 26.0625 6.00001 26.4375 5.71876ZM15.6562 25.875C16.125 26.7188 16.5938 27.4688 17.1562 28.3125C15.6562 28.125 14.1562 27.9375 12.75 27.5625C13.2188 26.25 13.6875 24.8438 14.25 23.4375C14.7188 24.2813 15.1875 25.0313 15.6562 25.875ZM12.75 14.625C14.1562 14.25 15.5625 14.0625 17.0625 13.875C16.5938 14.625 16.125 15.4688 15.6562 16.2188C15.1875 17.0625 14.7188 17.8125 14.25 18.6563C13.6875 17.25 13.2188 15.9375 12.75 14.625ZM15.375 21.0938C15.9375 19.7813 16.6875 18.4688 17.3438 17.25C18.0938 16.0313 18.8438 14.8125 19.6875 13.5938C21.0938 13.5 22.5 13.4063 24 13.4063C25.4062 13.4063 26.9062 13.5 28.2188 13.5938C29.0625 14.8125 29.8125 16.0313 30.5625 17.25C31.2188 18.4688 31.9688 19.6875 32.5312 21C31.9688 22.3125 31.3125 23.625 30.5625 24.8438C29.8125 26.0625 29.0625 27.2813 28.3125 28.5C26.9062 28.5938 25.4062 28.6875 24 28.6875C22.5 28.6875 21.0938 28.5938 19.6875 28.5C18.8438 27.2813 18.0938 26.0625 17.3438 24.8438C16.6875 23.625 16.0312 22.3125 15.375 21.0938ZM32.25 25.875C32.8125 25.0313 33.1875 24.1875 33.6562 23.3438C34.2188 24.75 34.7812 26.0625 35.25 27.4688C33.75 27.8438 32.3438 28.125 30.8438 28.2188C31.3125 27.4688 31.7812 26.625 32.25 25.875ZM33.6562 18.6563C33.1875 17.8125 32.7188 17.0625 32.25 16.2188C31.7812 15.4688 31.3125 14.625 30.8438 13.875C32.3438 14.0625 33.8438 14.3438 35.1562 14.625C34.6875 16.0313 34.2188 17.3438 33.6562 18.6563ZM24 8.15626C24.9375 9.18751 25.875 10.3125 26.7188 11.5313C24.9375 11.4375 23.0625 11.4375 21.1875 11.5313C22.125 10.3125 23.0625 9.18751 24 8.15626ZM13.125 2.34376C14.7188 1.50001 18.1875 2.81251 21.8438 6.00001C22.125 6.28126 22.3125 6.46876 22.5938 6.65626C21.0938 8.25001 19.7812 9.93751 18.5625 11.7188C16.4062 11.9063 14.3438 12.1875 12.2812 12.6563C12.0938 12.1875 12 11.7188 11.9062 11.1563C11.0625 6.65626 11.625 3.28126 13.125 2.34376ZM10.7812 27.0938C10.4062 27 10.0312 26.9063 9.65625 26.7188C7.6875 26.0625 5.34375 25.125 3.75 23.8125C2.8125 23.1563 2.15625 22.125 1.96875 21C1.96875 19.3125 4.96875 17.0625 9.1875 15.5625C9.75 15.375 10.3125 15.2813 10.875 15.0938C11.4375 17.1563 12.2812 19.125 13.125 21.0938C12.1875 22.9688 11.4375 25.0313 10.7812 27.0938ZM21.75 36.2813C20.1562 37.6875 18.375 38.8125 16.4062 39.5625C15.375 40.125 14.25 40.125 13.125 39.75C11.625 38.8125 11.0625 35.5313 11.9062 31.125C12 30.5625 12.0938 30 12.1875 29.5313C14.3438 30 16.4062 30.2813 18.5625 30.4688C19.7812 32.1563 21.1875 33.8438 22.5938 35.4375C22.3125 35.7188 22.0312 36 21.75 36.2813ZM24 34.0313C23.0625 33 22.125 31.875 21.1875 30.5625C22.125 30.6563 23.0625 30.6563 24 30.6563C24.9375 30.6563 25.875 30.6563 26.8125 30.5625C25.9688 31.7813 25.0312 32.9063 24 34.0313ZM36.2812 36.8438C36.1875 37.9688 35.625 39 34.7812 39.75C33.2812 40.5938 30.0938 39.4688 26.625 36.5625C26.25 36.1875 25.875 35.8125 25.4062 35.4375C26.9062 33.8438 28.2188 32.25 29.4375 30.4688C31.5938 30.2813 33.6562 29.9063 35.8125 29.4375C35.9062 29.8125 36 30.1875 36.0938 30.5625C36.4688 32.625 36.5625 34.7813 36.2812 36.8438ZM37.9688 26.7188C37.6875 26.8125 37.5 26.9063 37.2188 27C36.5625 24.9375 35.7188 22.9688 34.7812 21C35.7188 19.125 36.4688 17.1563 37.125 15.0938C37.5938 15.2813 38.0625 15.375 38.5312 15.5625C42.8438 17.0625 45.9375 19.3125 45.9375 21C45.9375 22.7813 42.6562 25.2188 37.9688 26.7188ZM24 25.3125C26.3438 25.3125 28.2188 23.4375 28.2188 21C28.2188 18.6563 26.3438 16.7813 24 16.7813C21.5625 16.7813 19.6875 18.6563 19.6875 21C19.6875 23.4375 21.5625 25.3125 24 25.3125Z" fill="black"/>
</svg>
